<?xml version="1.0" encoding="iso-8859-1"?>
<!-- Generator: Adobe Illustrator 19.0.0, SVG Export Plug-In . SVG Version: 6.00 Build 0)  -->
<svg version="1.1" id="Layer_1" xmlns="http://www.w3.org/2000/svg" xmlns:xlink="http://www.w3.org/1999/xlink" x="0px" y="0px"
	 viewBox="0 0 512 512" style="enable-background:new 0 0 512 512;" xml:space="preserve">
<g>
	<polygon style="fill:#D37250;" points="466.034,406.713 478.338,419.017 413.164,419.017 413.164,436.603 478.337,436.603 
		466.034,448.907 478.469,461.342 512,427.81 478.469,394.279 	"/>
	<polygon style="fill:#D37250;" points="45.967,406.713 33.533,394.279 0,427.81 33.533,461.342 45.967,448.907 33.663,436.603 
		98.836,436.603 98.836,419.017 33.663,419.017 	"/>
</g>
<g>
	<polygon style="fill:#4C9CBF;" points="466.034,105.283 478.469,117.718 512,84.186 478.469,50.655 466.034,63.089 478.338,75.393 
		413.164,75.393 413.164,92.979 478.337,92.979 	"/>
	<polygon style="fill:#4C9CBF;" points="45.967,63.089 33.533,50.655 0,84.186 33.533,117.718 45.967,105.283 33.663,92.979 
		98.836,92.979 98.836,75.393 33.663,75.393 	"/>
</g>
<polygon style="fill:#D37250;" points="205.667,234.901 217.97,247.205 152.797,247.205 152.797,264.791 217.97,264.791 
	205.667,277.095 218.101,289.53 251.633,255.998 218.101,222.467 "/>
<polygon style="fill:#4C9CBF;" points="306.334,234.901 293.9,222.467 260.367,255.998 293.9,289.53 306.334,277.095 
	294.03,264.791 359.203,264.791 359.203,247.205 294.03,247.205 "/>
<g>
	<circle style="fill:#E88158;" cx="156.092" cy="427.814" r="68.979"/>
	<circle style="fill:#E88158;" cx="355.913" cy="427.814" r="68.979"/>
</g>
<g>
	<circle style="fill:#5DACD8;" cx="156.092" cy="84.186" r="68.979"/>
	<circle style="fill:#5DACD8;" cx="355.913" cy="84.186" r="68.979"/>
</g>
<circle style="fill:#E88158;" cx="95.538" cy="256.001" r="68.979"/>
<circle style="fill:#5DACD8;" cx="416.455" cy="256.001" r="68.979"/>
<g>
	<polygon style="fill:#E6E6E6;" points="164.884,391.426 147.299,391.426 147.299,419.017 119.707,419.017 119.707,436.603 
		147.299,436.603 147.299,464.195 164.884,464.195 164.884,436.603 192.475,436.603 192.475,419.017 164.884,419.017 	"/>
	<polygon style="fill:#E6E6E6;" points="364.703,391.426 347.117,391.426 347.117,419.017 319.525,419.017 319.525,436.603 
		347.117,436.603 347.117,464.195 364.703,464.195 364.703,436.603 392.293,436.603 392.293,419.017 364.703,419.017 	"/>
	<rect x="119.712" y="75.394" style="fill:#E6E6E6;" width="72.77" height="17.586"/>
	<rect x="319.522" y="75.394" style="fill:#E6E6E6;" width="72.77" height="17.586"/>
	<polygon style="fill:#E6E6E6;" points="131.926,264.791 131.926,247.205 104.335,247.205 104.335,219.613 86.75,219.613 
		86.75,247.205 59.157,247.205 59.157,264.791 86.75,264.791 86.75,292.383 104.335,292.383 104.335,264.791 	"/>
	<rect x="380.076" y="247.208" style="fill:#E6E6E6;" width="72.77" height="17.586"/>
</g>
<g>
</g>
<g>
</g>
<g>
</g>
<g>
</g>
<g>
</g>
<g>
</g>
<g>
</g>
<g>
</g>
<g>
</g>
<g>
</g>
<g>
</g>
<g>
</g>
<g>
</g>
<g>
</g>
<g>
</g>
</svg>
