<?xml version="1.0" encoding="iso-8859-1"?>
<!-- Generator: Adobe Illustrator 19.0.0, SVG Export Plug-In . SVG Version: 6.00 Build 0)  -->
<svg version="1.1" id="Layer_1" xmlns="http://www.w3.org/2000/svg" xmlns:xlink="http://www.w3.org/1999/xlink" x="0px" y="0px"
	 viewBox="0 0 488 488" style="enable-background:new 0 0 488 488;" xml:space="preserve">
<g transform="translate(0 -540.36)">
	<g>
		<g>
			<path d="M111.467,704.074L111.467,704.074l-80.907,0c-5.1,0-9.301,3.802-9.901,8.804L0.057,885.655
				c-0.3,2.801,0.6,5.703,2.5,7.803c1.9,2.101,4.6,3.401,7.501,3.401h81.707c5.5,0,10.001-4.502,10.001-10.004
				s-4.5-10.004-10.001-10.004H21.359l7.901-66.43h51.805c5.5,0,10.001-4.502,10.001-10.004s-4.5-10.004-10.001-10.004H31.659
				l7.901-66.43h72.006c5.5,0,10.001-4.502,10.001-10.004S117.067,704.074,111.467,704.074z"/>
			<path d="M183.273,768.703h-50.404c-5.5,0-10.001,4.502-10.001,10.004s4.5,10.004,10.001,10.004h50.404
				c5.5,0,10.001-4.502,10.001-10.004S188.773,768.703,183.273,768.703z"/>
			<path d="M183.273,812.222h-50.404c-5.5,0-10.001,4.502-10.001,10.004s4.5,10.004,10.001,10.004h50.404
				c5.5,0,10.001-4.502,10.001-10.004S188.773,812.222,183.273,812.222z"/>
			<path d="M477.999,725.884L477.999,725.884l-9.101,0c2.9-5.202,4.6-11.205,4.6-17.408c0-0.2,0-0.4,0-0.5
				c-1-19.909-19.202-36.116-40.504-36.116c-5.5,0-10.001,4.502-10.001,10.004s4.5,10.004,10.001,10.004
				c10.601,0,19.902,7.703,20.502,16.908c-0.2,9.104-8.301,16.607-18.602,17.208h-7.301c-5.5,0-10.001,4.502-10.001,10.004
				s4.5,10.004,10.001,10.004h50.404c5.5,0,10.001-4.502,10.001-10.004S483.5,725.884,477.999,725.884z"/>
			<path d="M397.092,788.612c5.5,0,10.001-4.502,10.001-10.004s-4.5-10.004-10.001-10.004c-21.602,0-41.904,12.105-53.005,31.714
				c0,0.1-0.1,0.1-0.1,0.2c-10.701,19.909-10.701,44.52,0,64.429c0,0.1,0.1,0.1,0.1,0.2c11.101,19.609,31.403,31.714,53.005,31.714
				c5.5,0,10.001-4.502,10.001-10.004s-4.5-10.004-10.001-10.004v0c-14.401,0-28.003-8.204-35.503-21.51
				c-7.501-13.906-7.501-31.214,0-45.22C369.189,796.815,382.791,788.612,397.092,788.612z"/>
			<path d="M285.582,768.703c-8.101,0-15.501,3.201-20.902,8.404c-1.5-1.301-3.2-2.601-5.1-3.702
				c-9.401-6.103-21.002-6.103-30.403,0c-9.901,5.903-15.401,15.507-15.401,27.112v85.638c0,5.502,4.5,10.004,10.001,10.004
				s10.001-4.502,10.001-10.004v-85.638c0-4.402,1.9-7.703,5.801-9.904c0.2-0.1,0.3-0.2,0.4-0.3c2.8-1.801,6.101-1.801,8.801,0
				c0.1,0.1,0.3,0.2,0.4,0.3c3.9,2.301,5.801,5.502,5.801,9.904v85.638c0,5.502,4.5,10.004,10.001,10.004
				s10.001-4.502,10.001-10.004v-85.638c0-0.2,0-0.3,0-0.5c0-0.1,0-0.2,0-0.3c0-6.003,4.9-11.005,10.601-11.005
				c5.3,0,9.801,5.402,9.801,11.805v85.638c0,5.502,4.5,10.004,10.001,10.004s10.001-4.502,10.001-10.004v-85.638
				C315.485,782.909,302.083,768.703,285.582,768.703z"/>
		</g>
	</g>
</g>
<g>
</g>
<g>
</g>
<g>
</g>
<g>
</g>
<g>
</g>
<g>
</g>
<g>
</g>
<g>
</g>
<g>
</g>
<g>
</g>
<g>
</g>
<g>
</g>
<g>
</g>
<g>
</g>
<g>
</g>
</svg>
